<svg width="1583" height="1400" viewBox="0 0 1583 1400" fill="none" xmlns="http://www.w3.org/2000/svg">
<path d="M136.484 1400H0.484375V2.67029e-05H136.484V712H160.484V316H292.484V780C292.484 798.667 285.818 814.667 272.484 828C260.484 840 245.151 846 226.484 846H136.484V870H226.484C245.151 870 260.484 876.667 272.484 890C285.818 903.333 292.484 919.333 292.484 938V1400H160.484V1004H136.484V1400ZM112.484 980H184.484V1376H270.484V938C270.484 926 265.818 916 256.484 908C248.484 898.667 238.484 894 226.484 894H112.484V822H226.484C238.484 822 248.484 818 256.484 810C265.818 800.667 270.484 790.667 270.484 780V340H184.484V736H112.484V24.0001H24.4844V1376H112.484V980ZM450.891 1400H316.891V316H450.891V1400ZM426.891 340H340.891V1376H426.891V340ZM450.891 292H316.891V2.67029e-05H450.891V292ZM426.891 24.0001H340.891V268H426.891V24.0001ZM499.094 1132V1376H585.094V1132H499.094ZM609.094 1400H475.094V1108H609.094V1400Z" fill="#95CFFF"/>
<path d="M859.297 2.67029e-05C877.964 2.67029e-05 893.297 6.66669 905.297 20C918.63 32 925.297 47.3333 925.297 66V632V766V1334C925.297 1352.67 918.63 1368.67 905.297 1382C893.297 1394 877.964 1400 859.297 1400H699.297C680.63 1400 664.63 1394 651.297 1382C639.297 1368.67 633.297 1352.67 633.297 1334V792H767.297V1266H791.297V766H633.297V632H791.297V134H767.297V608H633.297V66C633.297 47.3333 639.297 32 651.297 20C664.63 6.66669 680.63 2.67029e-05 699.297 2.67029e-05H859.297ZM1175.7 2.67029e-05C1194.37 2.67029e-05 1209.7 6.66669 1221.7 20C1235.04 32 1241.7 47.3333 1241.7 66V608H1107.7V134H1083.7V632H1175.7C1194.37 632 1209.7 638.667 1221.7 652C1235.04 665.333 1241.7 681.333 1241.7 700V1334C1241.7 1352.67 1235.04 1368.67 1221.7 1382C1209.7 1394 1194.37 1400 1175.7 1400H1015.7C997.036 1400 981.036 1394 967.703 1382C955.703 1368.67 949.703 1352.67 949.703 1334V66C949.703 47.3333 955.703 32 967.703 20C981.036 6.66669 997.036 2.67029e-05 1015.7 2.67029e-05H1175.7ZM1083.7 766V1266H1107.7V766H1083.7ZM1492.11 2.67029e-05C1510.78 2.67029e-05 1526.11 6.66669 1538.11 20C1551.44 32 1558.11 47.3333 1558.11 66V1334C1558.11 1352.67 1551.44 1368.67 1538.11 1382C1526.11 1394 1510.78 1400 1492.11 1400H1332.11C1313.44 1400 1297.44 1394 1284.11 1382C1272.11 1368.67 1266.11 1352.67 1266.11 1334V66C1266.11 47.3333 1272.11 32 1284.11 20C1297.44 6.66669 1313.44 2.67029e-05 1332.11 2.67029e-05H1492.11ZM1424.11 134H1400.11V1266H1424.11V134Z" fill="#5B6C5D"/>
</svg>
